<?xml version="1.0" standalone="no"?>
<!DOCTYPE svg PUBLIC "-//W3C//DTD SVG 20010904//EN"
 "http://www.w3.org/TR/2001/REC-SVG-20010904/DTD/svg10.dtd">
<svg version="1.0" xmlns="http://www.w3.org/2000/svg"
 width="944.000000pt" height="944.000000pt" viewBox="0 0 944.000000 944.000000"
 preserveAspectRatio="xMidYMid meet">
<metadata>
Created by potrace 1.14, written by Peter Selinger 2001-2017
</metadata>
<g transform="translate(0.000000,944.000000) scale(0.100000,-0.100000)"
fill="#000000" stroke="none">
<path d="M4312 9295 c-79 -18 -158 -62 -217 -120 -47 -46 -103 -126 -109 -157
-2 -7 -6 -22 -10 -33 -4 -11 -11 -29 -15 -40 -8 -23 -6 -167 3 -209 4 -16 12
-39 18 -50 6 -12 10 -21 8 -21 -2 0 6 -19 18 -41 26 -50 119 -154 138 -154 8
0 14 -3 14 -8 0 -13 83 -51 146 -67 74 -19 187 -14 260 11 169 57 297 218 309
391 2 23 6 47 10 53 3 5 2 10 -2 10 -5 0 -8 12 -7 28 5 106 -110 294 -212 347
-22 11 -41 22 -44 26 -3 3 -32 14 -65 24 -73 23 -172 27 -243 10z"/>
<path d="M6656 9283 c-1 -1 -22 -4 -46 -7 -25 -3 -56 -7 -70 -11 -14 -3 -29
-7 -35 -9 -98 -24 -222 -95 -306 -176 -41 -40 -104 -125 -118 -159 -8 -17 -17
-31 -22 -31 -5 0 -9 -8 -9 -17 0 -10 -6 -30 -14 -45 -8 -15 -17 -39 -20 -55
-4 -15 -9 -39 -13 -53 -8 -34 -12 -242 -5 -255 4 -5 7 -19 8 -30 7 -67 75
-219 124 -278 38 -46 99 -106 140 -139 50 -39 180 -106 222 -113 15 -3 38 -9
50 -14 13 -4 29 -6 36 -4 6 3 12 1 12 -4 0 -8 159 -8 207 1 169 31 279 88 393
206 78 81 90 96 90 110 0 5 3 10 8 10 8 0 38 61 34 73 -1 4 3 7 8 7 6 0 10 9
10 20 0 11 5 20 12 20 6 0 9 3 5 6 -3 3 1 23 8 45 8 22 14 41 15 44 0 3 0 6 1
8 15 45 12 228 -5 301 -17 71 -64 188 -78 194 -4 2 -8 9 -8 16 0 7 -9 21 -20
31 -11 10 -20 23 -20 29 0 17 -119 128 -175 163 -95 59 -205 101 -282 106 -18
1 -33 4 -33 7 0 5 -99 7 -104 3z"/>
<path d="M2857 8944 c-1 -1 -20 -5 -41 -8 -50 -8 -127 -50 -173 -95 -19 -19
-49 -64 -66 -100 -60 -128 -33 -276 70 -378 69 -68 131 -96 221 -99 117 -4
213 39 285 129 174 217 23 536 -261 551 -18 1 -34 1 -35 0z"/>
<path d="M8590 8564 c-25 -13 -77 -66 -160 -164 -25 -29 -61 -71 -81 -93 l-36
-40 -30 21 c-38 27 -168 87 -213 99 -8 2 -42 5 -75 7 -79 4 -150 -27 -221 -99
-58 -58 -129 -162 -164 -240 -12 -27 -26 -59 -31 -70 -15 -34 -50 -148 -55
-184 -3 -18 -8 -43 -10 -55 -6 -27 -6 -135 0 -161 10 -50 28 -103 45 -134 17
-31 17 -35 2 -51 -9 -9 -37 -41 -63 -72 -26 -30 -58 -66 -70 -80 -13 -14 -44
-50 -70 -80 -26 -30 -58 -66 -70 -80 -13 -14 -45 -51 -73 -84 -27 -32 -61 -71
-75 -86 -14 -15 -30 -34 -35 -41 -14 -16 -157 -179 -170 -193 -5 -6 -35 -40
-65 -75 -30 -35 -64 -73 -75 -85 -11 -13 -33 -39 -50 -59 -16 -21 -41 -49 -55
-64 -14 -15 -38 -43 -55 -62 -47 -53 -182 -208 -235 -269 -54 -61 -67 -76
-125 -145 -22 -26 -53 -62 -70 -80 -16 -18 -52 -58 -80 -90 -27 -32 -61 -70
-74 -84 -12 -14 -39 -46 -60 -70 -20 -24 -43 -51 -52 -60 -15 -15 -143 -163
-164 -189 -5 -7 -19 -23 -31 -35 -11 -12 -65 -74 -120 -137 -54 -63 -101 -117
-104 -120 -3 -3 -32 -36 -65 -75 -33 -38 -67 -76 -75 -85 -8 -9 -40 -45 -70
-79 -104 -121 -125 -145 -239 -275 -63 -72 -131 -150 -151 -172 -20 -23 -47
-54 -59 -70 l-22 -27 -63 22 c-79 28 -113 34 -201 34 -82 0 -146 -9 -192 -28
-19 -8 -35 -13 -36 -12 -2 1 -34 -16 -71 -38 -171 -100 -285 -279 -290 -457
-1 -21 -5 -38 -9 -38 -5 0 -5 -5 -1 -11 3 -6 8 -34 10 -62 2 -29 5 -59 7 -67
12 -49 21 -76 30 -87 5 -7 7 -13 3 -13 -9 0 43 -90 78 -135 35 -45 94 -100
140 -131 26 -18 181 -89 181 -84 0 1 20 -1 45 -5 122 -18 256 1 359 51 53 27
159 105 174 131 4 7 19 24 33 38 13 13 24 27 24 31 0 3 9 19 21 35 28 39 68
159 73 216 2 27 5 50 6 53 3 6 3 1 -5 80 -8 83 -28 149 -65 222 l-30 58 20 20
c11 11 20 22 20 25 0 3 8 13 18 23 21 23 81 91 147 167 28 32 60 69 73 82 12
13 22 26 22 28 0 2 10 15 23 27 21 23 103 115 147 168 20 23 65 75 133 153 16
18 45 51 65 75 20 23 54 62 76 85 21 23 51 59 66 79 15 21 30 34 34 31 3 -3 6
-2 6 3 0 5 12 23 26 39 14 17 42 50 62 74 20 24 46 53 58 65 11 11 49 55 85
96 35 41 76 88 90 105 15 16 77 89 139 160 62 72 119 137 127 145 15 17 33 37
113 130 30 35 62 71 70 80 18 19 189 216 216 248 10 13 33 38 49 56 17 18 50
57 75 87 54 65 81 95 140 159 25 27 55 62 67 78 12 16 33 40 45 53 13 14 50
56 83 94 33 38 70 79 82 92 12 12 27 31 35 41 7 11 38 47 68 81 83 93 91 103
142 162 26 29 62 71 81 93 l34 38 58 -17 c89 -26 183 -23 287 9 26 7 49 11 52
8 4 -3 6 0 6 6 0 7 11 12 25 12 14 0 25 5 25 10 0 6 5 10 11 10 18 0 116 50
129 65 7 8 18 15 24 15 6 0 24 11 40 25 16 14 32 25 36 25 9 0 120 108 154
150 35 43 64 109 69 155 2 19 6 38 10 41 3 4 2 15 -4 26 -6 11 -8 22 -5 25 3
4 1 12 -5 20 -6 7 -9 13 -5 13 17 0 -103 199 -126 208 -4 2 -8 10 -8 17 0 7
-7 16 -16 19 -15 6 11 42 111 152 67 74 138 164 130 164 -4 0 -3 6 2 13 13 17
5 76 -16 116 -30 56 -132 85 -191 55z"/>
<path d="M1547 8463 c-2 -2 -22 -5 -43 -8 -106 -11 -266 -107 -345 -208 -44
-55 -99 -157 -99 -182 0 -8 -4 -15 -9 -15 -5 0 -8 -8 -6 -17 1 -10 -2 -29 -7
-43 -15 -40 -10 -199 7 -260 9 -30 17 -61 19 -68 1 -7 8 -18 14 -24 7 -7 12
-18 12 -25 0 -21 70 -114 130 -171 61 -59 180 -122 270 -143 72 -16 190 -14
265 6 33 9 66 17 73 17 6 1 12 5 12 10 0 5 4 7 8 4 5 -3 25 6 45 19 20 14 40
25 46 25 10 0 123 109 156 151 43 54 95 177 100 238 2 25 5 46 6 46 0 0 2 35
3 78 1 42 -1 77 -4 77 -3 0 -7 14 -8 30 -3 41 -45 145 -80 197 -28 43 -84 105
-120 135 -31 25 -132 88 -132 83 0 -3 -13 1 -29 9 -44 23 -118 38 -203 41 -43
1 -79 0 -81 -2z"/>
<path d="M5607 8457 c-23 -5 -45 -19 -55 -34 -13 -21 -72 -206 -87 -276 -2
-10 -6 -26 -9 -35 -3 -9 -7 -28 -10 -42 -2 -14 -23 -95 -46 -180 -22 -85 -43
-166 -46 -180 -3 -14 -13 -54 -23 -90 -36 -126 -84 -305 -86 -320 -1 -8 -5
-22 -8 -30 -7 -17 -56 -194 -91 -325 -13 -49 -38 -144 -55 -210 -18 -66 -34
-127 -36 -135 -2 -8 -11 -40 -20 -70 -8 -30 -17 -68 -20 -84 -3 -16 -9 -34
-12 -39 -3 -6 -7 -20 -9 -31 -6 -46 -112 -404 -131 -446 -22 -46 -55 -82 -85
-93 -17 -6 -107 26 -118 42 -5 7 -118 63 -165 82 -51 20 -117 36 -195 46 -91
12 -304 6 -350 -11 -8 -3 -26 -7 -40 -10 -46 -8 -154 -49 -235 -90 -162 -81
-320 -284 -341 -437 -14 -99 -6 -168 30 -250 30 -70 119 -171 184 -209 15 -8
32 -20 38 -26 11 -10 99 -54 149 -75 41 -17 142 -40 205 -47 120 -12 330 -6
400 12 36 9 75 19 86 21 12 3 35 12 50 20 16 8 34 15 41 15 6 0 18 6 25 13 8
6 34 23 58 36 64 35 92 57 179 142 75 74 181 218 181 245 0 8 4 14 8 14 5 0
20 30 34 68 34 87 48 132 43 132 -3 0 0 12 6 28 6 15 12 35 15 46 2 10 11 44
20 75 9 31 18 64 20 74 2 10 6 27 9 37 3 10 8 27 10 37 3 10 9 38 16 63 6 25
12 52 14 60 2 8 13 45 24 83 11 37 17 67 15 67 -3 0 0 8 5 18 6 11 12 30 15
43 2 13 28 110 56 214 29 105 54 198 56 208 2 10 6 27 9 37 8 25 16 63 17 78
1 6 4 12 7 12 3 0 7 10 8 23 3 25 5 35 22 97 7 25 14 52 16 60 5 27 26 105 32
120 3 8 7 22 8 30 7 42 16 84 21 92 3 4 7 16 9 25 2 10 13 54 24 98 12 44 24
94 27 110 3 17 9 32 14 35 4 3 11 15 14 28 15 47 85 70 141 46 35 -14 95 -66
95 -82 0 -4 8 -17 18 -28 9 -10 24 -32 32 -49 8 -16 17 -32 20 -35 3 -3 14
-23 25 -45 11 -22 24 -43 28 -46 5 -3 8 -9 8 -13 -1 -3 10 -27 23 -54 13 -26
30 -67 37 -92 7 -25 16 -49 20 -55 4 -5 9 -29 13 -53 3 -24 8 -47 11 -52 13
-20 20 -247 10 -295 -2 -11 -7 -38 -10 -59 -3 -21 -7 -48 -10 -60 -3 -12 -7
-32 -10 -46 -3 -14 -12 -53 -21 -87 -33 -126 16 -199 110 -163 32 12 85 84
131 180 21 41 41 83 46 92 8 15 13 36 33 119 3 9 7 33 10 54 4 20 9 41 12 46
3 5 0 9 -7 9 -8 0 -8 4 -1 13 7 7 9 58 7 132 -6 193 -48 324 -209 640 -50 99
-93 182 -96 185 -12 11 -121 232 -151 306 -34 85 -71 204 -63 204 3 0 0 8 -5
18 -5 10 -12 37 -16 61 -10 67 -44 151 -72 175 -33 28 -60 34 -106 23z"/>
<path d="M3706 7894 c-73 -18 -181 -71 -245 -121 -46 -36 -160 -170 -153 -179
2 -3 -4 -16 -13 -30 -18 -28 -43 -93 -50 -133 -3 -14 -7 -37 -10 -51 -6 -26
-7 -163 -2 -190 2 -8 6 -24 10 -35 3 -11 8 -31 11 -45 5 -30 57 -144 68 -148
4 -2 8 -9 8 -16 0 -6 29 -43 64 -81 105 -116 242 -184 395 -200 24 -2 46 -6
49 -9 3 -3 11 -1 18 5 8 7 14 7 19 -1 3 -6 11 -7 18 -3 6 4 24 8 41 10 134 15
256 74 353 173 81 81 80 79 120 155 34 66 60 146 68 215 8 63 8 57 0 135 -4
39 -8 78 -8 88 -1 9 -5 17 -10 17 -4 0 -6 4 -3 8 3 5 -2 22 -10 38 -9 16 -17
37 -19 46 -7 35 -80 136 -144 198 -66 64 -152 115 -236 141 -22 6 -49 15 -60
19 -35 12 -217 8 -279 -6z"/>
<path d="M657 6704 c-1 -1 -24 -5 -52 -8 -183 -24 -362 -137 -459 -291 -42
-65 -83 -160 -91 -210 -18 -106 -23 -167 -17 -179 3 -5 7 -28 8 -50 10 -137
77 -271 191 -383 41 -40 78 -73 83 -73 5 0 15 -6 22 -13 11 -11 38 -25 113
-57 130 -56 315 -59 460 -7 58 21 145 68 145 78 0 5 4 9 10 9 5 0 22 10 36 23
125 106 203 241 231 397 7 37 6 201 -1 233 -18 81 -56 171 -99 237 -36 54
-152 172 -161 163 -3 -4 -6 -2 -6 4 0 6 -13 16 -30 23 -16 7 -30 15 -30 19 0
4 -17 13 -37 21 -21 7 -54 20 -73 28 -34 15 -44 17 -125 27 -45 6 -116 11
-118 9z"/>
<path d="M7768 6556 c-98 -37 -159 -85 -200 -156 -30 -51 -55 -141 -52 -185 4
-64 31 -155 46 -155 4 0 8 -7 8 -15 0 -13 49 -66 95 -103 38 -31 130 -58 195
-57 153 3 264 85 328 245 18 46 7 179 -19 234 -42 90 -145 177 -225 190 -16 2
-30 5 -31 6 -8 7 -126 4 -145 -4z"/>
<path d="M2440 6497 c-62 -16 -114 -40 -165 -78 -45 -33 -121 -109 -108 -109
2 0 -5 -11 -16 -26 -30 -38 -63 -149 -65 -218 -2 -66 19 -182 38 -206 6 -8 20
-32 30 -53 25 -47 97 -121 151 -153 119 -69 266 -86 385 -44 77 27 182 98 207
140 9 17 20 30 24 30 9 0 58 98 64 128 3 15 9 42 14 59 12 41 8 144 -9 203
-44 163 -185 295 -354 330 -60 12 -142 11 -196 -3z"/>
<path d="M8828 5885 c-2 -2 -23 -6 -48 -9 -94 -13 -174 -53 -243 -121 -176
-173 -175 -452 1 -622 88 -85 181 -124 300 -125 303 -2 517 298 416 584 -49
140 -180 252 -325 278 -35 6 -72 13 -81 15 -9 1 -18 2 -20 0z"/>
<path d="M6845 5188 c-70 -9 -134 -31 -189 -66 -57 -36 -68 -45 -127 -112 -26
-30 -79 -138 -79 -162 0 -9 -4 -19 -8 -22 -13 -8 -14 -170 -2 -218 28 -107
102 -219 181 -273 24 -16 46 -33 49 -36 11 -14 124 -49 173 -55 29 -3 57 -7
64 -9 6 -2 14 -1 17 2 3 3 28 7 57 9 28 2 65 10 82 19 16 8 34 15 39 15 20 0
128 82 165 125 41 48 90 137 99 177 18 85 20 142 10 208 -8 53 -11 64 -19 78
-5 6 -6 12 -2 12 9 0 -42 89 -78 137 -59 77 -183 151 -282 168 -63 10 -86 11
-150 3z"/>
<path d="M1385 5094 c-142 -34 -245 -117 -310 -249 -56 -113 -63 -249 -18
-365 4 -8 5 -18 5 -22 -1 -5 3 -8 10 -8 6 0 9 -3 5 -6 -13 -13 82 -129 139
-170 44 -32 111 -64 132 -64 10 0 22 -3 26 -7 10 -10 34 -13 111 -13 108 1
151 12 235 61 168 99 253 293 215 493 -8 48 -63 166 -76 166 -5 0 -9 5 -9 12
0 7 -24 34 -52 60 -54 50 -146 99 -208 113 -58 13 -152 12 -205 -1z"/>
<path d="M2765 4633 c-65 -15 -74 -18 -154 -57 -146 -70 -276 -245 -307 -413
-8 -47 -8 -165 0 -218 14 -84 61 -185 124 -265 38 -48 134 -130 151 -130 6 0
11 -4 11 -10 0 -5 3 -9 8 -8 4 1 30 -9 57 -21 53 -24 72 -30 120 -38 39 -7
194 -7 220 -1 11 3 34 8 50 12 81 20 180 78 251 146 43 41 128 159 126 177 0
4 4 13 9 19 5 7 12 20 14 30 3 11 11 44 19 75 8 33 12 92 11 145 -9 255 -187
483 -430 549 -79 21 -204 25 -280 8z"/>
<path d="M8475 4439 c-2 -3 -14 -5 -27 -4 -13 1 -40 -4 -60 -11 -21 -7 -38
-11 -38 -9 0 6 -125 -42 -173 -68 -115 -62 -235 -173 -301 -281 -22 -35 -77
-146 -81 -161 -1 -5 -7 -28 -13 -50 -22 -78 -26 -111 -26 -220 -1 -104 2 -133
23 -215 66 -266 294 -494 571 -570 89 -25 268 -33 355 -17 103 19 295 96 295
119 0 4 5 8 11 8 20 0 134 103 180 162 24 32 52 67 61 79 10 12 15 26 12 30
-3 5 -1 9 4 9 5 0 23 33 39 73 33 79 43 113 60 207 7 43 7 196 -1 230 -3 14
-7 34 -10 45 -2 11 -7 34 -11 50 -19 87 -78 204 -143 285 -68 85 -200 200
-230 200 -6 0 -12 4 -14 8 -6 15 -156 75 -219 87 -83 17 -257 26 -264 14z"/>
<path d="M6254 3734 c-353 -50 -637 -332 -691 -684 -13 -86 -2 -306 15 -320 4
-3 8 -14 10 -25 11 -70 103 -250 134 -263 4 -2 8 -9 8 -16 0 -19 131 -141 195
-181 71 -46 201 -103 250 -110 6 -1 12 -3 15 -4 33 -15 262 -19 330 -6 101 19
257 87 333 145 50 38 157 144 157 156 0 7 6 17 13 21 19 12 72 100 95 158 36
90 46 119 48 134 1 9 5 36 9 61 11 65 13 175 3 234 -10 67 -16 101 -18 101 -1
0 -3 7 -5 15 -15 71 -80 200 -139 275 -60 77 -204 205 -230 205 -5 0 -20 8
-34 18 -25 17 -134 61 -157 63 -5 1 -20 5 -32 10 -59 22 -203 29 -309 13z"/>
<path d="M6320 1093 c-30 -7 -59 -15 -65 -17 -5 -2 -20 -7 -32 -11 -13 -4 -23
-11 -23 -16 0 -5 -6 -9 -14 -9 -18 0 -146 -118 -146 -136 0 -8 -4 -14 -8 -14
-13 0 -50 -83 -67 -151 -42 -163 13 -340 142 -459 36 -32 84 -67 109 -77 24
-10 44 -22 44 -26 0 -5 4 -5 10 -2 5 3 19 1 31 -5 12 -7 60 -13 107 -15 98 -3
196 22 272 69 50 32 150 132 150 152 0 7 4 14 8 16 12 5 51 101 58 145 28 164
-18 314 -131 428 -53 52 -165 126 -165 109 0 -4 -6 -2 -12 3 -35 28 -185 36
-268 16z"/>
</g>
</svg>
